<?xml version="1.0" standalone="no"?>
<!DOCTYPE svg PUBLIC "-//W3C//DTD SVG 20010904//EN"
 "http://www.w3.org/TR/2001/REC-SVG-20010904/DTD/svg10.dtd">
<svg version="1.0" xmlns="http://www.w3.org/2000/svg"
 width="512.000000pt" height="512.000000pt" viewBox="0 0 512.000000 512.000000"
 preserveAspectRatio="xMidYMid meet">
<metadata>
Created by potrace 1.16, written by Peter Selinger 2001-2019
</metadata>
<g transform="translate(0.000000,512.000000) scale(0.100000,-0.100000)"
fill="#000000" stroke="none">
<path d="M2465 5106 c-44 -20 -83 -60 -105 -108 -16 -36 -20 -66 -20 -179 l0
-137 -67 -12 c-101 -19 -287 -82 -383 -130 -244 -123 -445 -302 -592 -530
-107 -165 -168 -316 -219 -545 -6 -30 -14 -247 -18 -535 -9 -535 -13 -579 -76
-766 -76 -230 -191 -409 -382 -599 -158 -157 -178 -195 -178 -340 0 -90 3
-106 29 -160 38 -76 105 -143 181 -181 l60 -29 1860 0 1860 0 57 27 c76 35
138 95 179 170 30 56 34 73 37 158 6 151 -9 181 -182 360 -205 211 -311 380
-384 610 -58 182 -64 250 -72 775 -7 431 -10 489 -28 565 -70 292 -202 530
-407 735 -212 212 -474 354 -758 410 l-87 18 0 144 c0 152 -6 179 -54 231 -52
58 -175 81 -251 48z"/>
<path d="M1040 4940 c-107 -56 -385 -412 -523 -670 -192 -356 -307 -803 -307
-1190 0 -138 7 -167 54 -218 63 -70 186 -87 269 -39 87 51 101 89 116 327 22
334 105 627 257 911 97 181 200 324 362 502 74 81 92 119 92 192 -1 76 -65
169 -137 196 -42 16 -145 10 -183 -11z"/>
<path d="M3875 4943 c-79 -41 -119 -109 -119 -198 1 -77 16 -105 115 -213 221
-239 383 -512 484 -816 69 -207 115 -469 115 -660 0 -102 15 -143 69 -197 90
-90 223 -88 309 5 57 61 66 103 58 261 -30 583 -225 1108 -577 1550 -89 113
-224 250 -264 269 -43 21 -150 20 -190 -1z"/>
<path d="M1770 626 c0 -8 14 -53 31 -100 91 -253 306 -445 567 -507 73 -18
109 -20 222 -17 118 4 146 9 222 35 256 89 444 288 521 551 l16 52 -790 0
c-682 0 -789 -2 -789 -14z"/>
</g>
</svg>
